<?xml version="1.0" encoding="utf-8"?>
<!-- Generator: Adobe Illustrator 27.7.0, SVG Export Plug-In . SVG Version: 6.00 Build 0)  -->
<svg version="1.1" id="Layer_1" xmlns="http://www.w3.org/2000/svg" xmlns:xlink="http://www.w3.org/1999/xlink" x="0px" y="0px"
	 viewBox="0 0 184 89" style="enable-background:new 0 0 184 89;" xml:space="preserve">
<style type="text/css">
	.st0{fill:#865445;}
</style>
<g>
	<path class="st0" d="M26.93,67.34c4.64-9.67,9.78-20.38,18.83-26.39c10.94-7.26,24.12-3.87,35.06,1.55
		c10.9,5.39,20.77,13.12,32.48,16.66c5.28,1.59,11.05,2.36,16.48,1.21c5.47-1.16,9.34-4.8,11.99-9.78
		c4.4-8.26,6.61-17.71,11.26-25.82c0.83-1.45-1.34-2.77-2.17-1.32c-1.79,3.12-3.07,6.61-4.45,9.93c-1.7,4.09-3.33,8.22-5.1,12.29
		c-2.41,5.54-5.5,10.54-11.54,12.04c-5.97,1.48-12.46,0.19-18.16-1.85c-11.72-4.19-21.66-12.26-33.03-17.25
		c-10.42-4.58-22.48-6.78-32.8-0.71C35.55,43.89,29.8,55.5,24.75,66.01C24.03,67.52,26.21,68.84,26.93,67.34"/>
	<path class="st0" d="M59.61,35.57c0.59-4.58,2.12-9.96,6.33-12.28c4.53-2.49,10.45-2.38,13.85-6.82c-0.7-0.42-1.4-0.85-2.11-1.27
		c-1.31,4.03-1.85,8.26-1.63,12.51c0.1,1.92,0.17,3.82-0.34,5.69c-0.36,1.32-1.03,2.97-2.54,3.09c-1.61,0.13-1.62,2.75,0,2.62
		c4.1-0.34,5.39-5.03,5.47-8.66c0.05-2.4-0.22-4.78-0.04-7.18c0.19-2.51,0.73-4.98,1.51-7.36c0.39-1.19-1.32-2.3-2.11-1.27
		c-1.65,2.16-3.96,3.04-6.43,3.79c-2.67,0.81-5.5,1.57-7.84,3.18c-4.16,2.86-5.92,8.39-6.56,13.28c-0.09,0.71,0.16,1.4,0.88,1.61
		C58.64,36.66,59.52,36.27,59.61,35.57"/>
	<path class="st0" d="M106.97,54.63c-0.09-2.08,0.62-4.24,1.86-5.88c1.5-1.98,4.08-2.92,6.18-4c4.29-2.2,7.81-5.46,10.17-9.83
		c-0.73-0.44-1.45-0.88-2.17-1.32c-1.44,3.07-3.38,5.76-3.89,9.23c-0.37,2.49-0.18,5,0.2,7.48c0.36,2.34,1.89,5.98,0.63,8.23
		c-0.81,1.46,1.36,2.78,2.17,1.32c1.29-2.31,0.65-5.13,0.13-7.57c-0.58-2.71-1.01-5.51-0.75-8.3c0.32-3.44,2.28-6.05,3.69-9.06
		c0.7-1.5-1.37-2.81-2.17-1.32c-1.21,2.24-2.75,4.22-4.64,5.88c-2.07,1.82-4.53,2.92-6.93,4.18c-2.12,1.11-3.99,2.37-5.27,4.5
		c-1.14,1.91-1.81,4.21-1.72,6.47C104.52,56.31,107.04,56.32,106.97,54.63"/>
	<path class="st0" d="M81.99,43.33c-3.04,3.65-1.93,9.72-0.18,13.73c2.26,5.19,7.51,7.83,12.8,8.09c1.46,0.07,1.36-2.11,0-2.3
		c-2.37-0.32-2.06-3.91-1.66-5.53c0.63-2.56,1.58-4.91,1.13-7.6c-0.24-1.45-2.37-0.84-2.13,0.61c0.55,3.29-1.72,6.34-1.52,9.65
		c0.15,2.54,1.66,4.82,4.18,5.17v-2.3c-4.45-0.21-8.84-2.4-10.79-6.73c-0.83-1.84-1.32-3.92-1.43-5.94
		c-0.09-1.74,0.01-3.83,1.17-5.22C84.48,43.84,82.92,42.21,81.99,43.33"/>
	<path class="st0" d="M33.32,53.33c3.51,0.53,6.5,2.73,9.97,3.4c3.06,0.59,6.38,0.21,8.65-2.2c-0.7-0.43-1.4-0.85-2.11-1.27
		c-1.29,4.36-4.72,7.53-8.88,8.84c-2.06,0.65-4.2,0.85-6.34,0.64c-0.95-0.09-2.03-0.23-2.88-0.71c-0.86-0.48-1.19-1.37-1.43-2.31
		c-0.42-1.63-2.85-0.94-2.43,0.7c0.72,2.81,2.51,4.27,5.23,4.73c2.65,0.45,5.37,0.35,7.97-0.36c5.26-1.45,9.58-5.38,11.2-10.83
		c0.37-1.26-1.24-2.19-2.11-1.27c-1.94,2.06-4.95,1.95-7.44,1.23c-2.98-0.87-5.64-2.63-8.73-3.1
		C32.41,50.56,31.72,53.09,33.32,53.33"/>
	<path class="st0" d="M145.23,41.38c3.11,0.34,6.5,0.9,9.43-0.56c2.52-1.25,5.91-3.75,5.26-7.1c-0.29-1.5-2.41-1.07-2.47,0.35
		c-0.13,3.01-0.66,5.99-1.73,8.8c-0.83,2.17-1.98,4.65-3.84,6.08c-2.67,2.05-7.95,3.67-10.59,0.76c-1.11-1.23-2.89,0.62-1.78,1.85
		c2.64,2.92,7.17,2.65,10.51,1.34c1.75-0.69,3.49-1.67,4.74-3.14c1.6-1.88,2.72-4.31,3.55-6.64c1.04-2.89,1.53-5.97,1.66-9.04
		c-0.82,0.12-1.65,0.23-2.47,0.35c0.16,0.85-0.72,1.73-1.25,2.23c-0.95,0.91-2.23,1.77-3.47,2.16c-2.39,0.75-5.11,0.22-7.53-0.05
		C143.62,38.59,143.63,41.21,145.23,41.38"/>
</g>
</svg>
