<?xml version="1.0" encoding="utf-8"?>
<!-- Generator: Adobe Illustrator 27.7.0, SVG Export Plug-In . SVG Version: 6.00 Build 0)  -->
<svg version="1.1" id="Layer_1" xmlns="http://www.w3.org/2000/svg" xmlns:xlink="http://www.w3.org/1999/xlink" x="0px" y="0px"
	 viewBox="0 0 206 217" style="enable-background:new 0 0 206 217;" xml:space="preserve">
<style type="text/css">
	.st0{fill:#FBFAEC;}
</style>
<g>
	<path class="st0" d="M22.22,171.3c-1-9.43-1.88-18.93-1.46-28.43c0.4-8.98,2.04-18.13,6.5-26.04c8.5-15.06,25.4-21.16,41.68-23.33
		c18.57-2.49,37.46-0.23,55.97-3.47c9.1-1.59,18.23-4.63,25.76-10.12c3.63-2.65,6.93-5.9,9.01-9.92c2.28-4.42,2.9-9.45,2.73-14.37
		c-0.26-7.49-1.88-15.02-3.09-22.4c-1.1-6.74-2.32-13.49-3.04-20.29c-0.1-0.94-0.19-1.89-0.21-2.84c-0.05-1.93-3.05-1.94-3,0
		c0.15,5.9,1.41,11.86,2.34,17.67c1.11,6.92,2.33,13.82,3.32,20.75c0.71,4.94,1.17,10.12,0.09,15.04
		c-1.01,4.59-3.51,8.42-6.96,11.57c-6.82,6.23-16.01,9.62-24.92,11.48c-18.48,3.85-37.5,1.49-56.14,3.67
		c-16.28,1.9-33.28,7.12-43.42,20.87c-11.14,15.1-10.46,35.49-8.84,53.25c0.21,2.3,0.45,4.6,0.69,6.9
		C19.42,173.2,22.42,173.22,22.22,171.3"/>
	<path class="st0" d="M39.64,101.38c-2.6-5.76-4.65-12.87-2.71-19.14c1.77-5.73,6.99-9.78,10.49-14.43c2.03-2.7,3.33-5.68,3.65-9.06
		l-2.95,0.4c1.5,6.28,4.14,12.28,7.78,17.61c1.86,2.72,3.72,5.4,4.65,8.6c0.64,2.19,1.14,5.23-1.01,6.77
		c-1.55,1.12-0.06,3.72,1.51,2.59c5.63-4.05,2.26-12.11-0.72-16.75c-1.98-3.08-4.07-6.02-5.68-9.33c-1.6-3.28-2.79-6.74-3.64-10.29
		c-0.42-1.75-2.79-1.19-2.95,0.4c-0.6,6.26-5.99,10.39-9.61,15.03c-1.87,2.39-3.65,4.99-4.5,7.93c-0.8,2.77-0.89,5.76-0.57,8.61
		c0.49,4.39,1.86,8.56,3.67,12.58C37.84,104.65,40.43,103.13,39.64,101.38"/>
	<path class="st0" d="M119.13,88.55c-1.83-2.67-2.64-6-2.51-9.22c0.15-3.66,2.3-6.81,4.17-9.84c2.07-3.35,3.92-6.76,5.03-10.56
		c1.15-3.95,1.57-8.09,1.32-12.19h-3c0.46,3.92,0.22,7.91,1.14,11.78c1.35,5.67,4.93,10.53,8.77,14.78
		c1.38,1.53,2.87,2.96,4.18,4.55c1.15,1.39,2.39,3.1,2.44,4.98c0.05,1.93,3.05,1.93,3,0c-0.1-3.42-2.48-6.27-4.7-8.66
		c-2.48-2.67-4.99-5.28-7.04-8.31c-2.58-3.81-4.07-7.87-4.36-12.45c-0.15-2.23-0.17-4.46-0.43-6.67c-0.22-1.87-3.12-1.96-3,0
		c0.25,4.23-0.22,8.43-1.54,12.46c-1.31,3.99-3.62,7.4-5.74,10.99c-1.86,3.16-3.31,6.32-3.25,10.05c0.05,3.42,0.99,6.98,2.93,9.83
		C117.63,91.65,120.23,90.15,119.13,88.55"/>
	<path class="st0" d="M72.13,91.21c-0.94,6.29,3.3,12.31,7.5,16.56c5.01,5.08,11.26,8.38,18.54,8.17c4.55-0.13,8.97-1.48,12.94-3.67
		c1.72-0.95,0.21-3.38-1.51-2.59c-1.73,0.79-3.8-0.15-5.13-1.3c-1.74-1.51-2.68-3.71-3.37-5.85c-1.41-4.38-2.11-9-5.28-12.56
		c-1.29-1.44-3.4,0.68-2.12,2.12c3.59,4.01,3.54,9.98,5.88,14.65c2.08,4.17,6.82,7.68,11.54,5.52c-0.5-0.86-1.01-1.73-1.51-2.59
		c-6.05,3.34-13.66,4.55-20.13,1.64c-4.98-2.24-9.36-6.64-12.14-11.28c-1.4-2.33-2.72-5.23-2.3-8.02
		C75.31,90.12,72.42,89.31,72.13,91.21"/>
	<path class="st0" d="M19.87,146.49c5.19-2.22,11.1-1.56,16.33-3.69c4.21-1.71,8.04-4.82,8.95-9.48h-2.89
		c1.86,6.81,0.15,14.03-4.39,19.42c-2.2,2.62-4.9,4.75-7.96,6.3c-1.51,0.76-3.26,1.59-4.98,1.68c-1.74,0.08-3.08-0.9-4.28-2.07
		c-1.38-1.35-3.51,0.77-2.12,2.12c2.39,2.33,5.16,3.48,8.48,2.62c3.1-0.8,6.09-2.49,8.62-4.42c4.97-3.79,8.73-9.27,9.94-15.46
		c0.72-3.66,0.56-7.4-0.42-11c-0.37-1.36-2.6-1.49-2.89,0c-0.83,4.24-4.62,6.76-8.51,7.98c-5.07,1.58-10.46,1.28-15.39,3.39
		C16.59,144.65,18.11,147.24,19.87,146.49"/>
	<path class="st0" d="M160.23,38.45c4.02-1.96,8.68-3.9,11.31-7.82c2.37-3.54,4.97-9.97,1.63-13.71c-1.14-1.27-3.06,0.35-2.27,1.82
		c2.17,4.03,3.84,8.32,4.74,12.85c0.76,3.79,1.33,8.27,0.1,12.02c-1.73,5.24-7.71,12.14-13.68,10.3c-1.79-0.55-2.56,2.35-0.77,2.89
		c5.71,1.75,11.22-2.51,14.46-7c1.68-2.33,2.99-5.09,3.37-7.99c0.49-3.82-0.01-7.92-0.82-11.66c-0.98-4.54-2.72-8.88-4.9-12.93
		c-0.76,0.61-1.52,1.21-2.27,1.82c1.12,1.25,0.72,3.34,0.32,4.81c-0.56,2.06-1.53,4.35-2.94,5.94c-2.56,2.89-6.38,4.42-9.73,6.06
		C157.09,36.68,158.56,39.27,160.23,38.45"/>
</g>
</svg>
