<?xml version="1.0" encoding="utf-8"?>
<!-- Generator: Adobe Illustrator 27.7.0, SVG Export Plug-In . SVG Version: 6.00 Build 0)  -->
<svg version="1.1" id="Layer_1" xmlns="http://www.w3.org/2000/svg" xmlns:xlink="http://www.w3.org/1999/xlink" x="0px" y="0px"
	 viewBox="0 0 145.5 157.5" style="enable-background:new 0 0 145.5 157.5;" xml:space="preserve">
<style type="text/css">
	.st0{fill:none;stroke:#865445;stroke-miterlimit:10;}
	.st1{fill:#FFFFF0;}
	.st2{fill:#865445;}
	.st3{font-family:'ArialNarrow';}
	.st4{font-size:11.1461px;}
	.st5{font-size:11.1462px;}
</style>
<g>
	<path class="st0" d="M4.03,140.69V17.51c0-6.6,5.4-12,12-12h117.39c6.6,0,12,5.4,12,12v123.19c0,6.6-5.4,12-12,12H16.03
		C9.43,152.69,4.03,147.29,4.03,140.69z"/>
	<g>
		<path class="st1" d="M4.03,140.69V17.51c0-6.6,5.4-12,12-12h117.39c6.6,0,12,5.4,12,12v123.19c0,6.6-5.4,12-12,12H16.03
			C9.43,152.69,4.03,147.29,4.03,140.69"/>
		<path class="st2" d="M63.69,64.66c-0.12-2.82,0.16-5.66,0.11-8.49c-0.07-4.29-0.46-8.67-1.7-12.8c-1.27-4.24-3.5-8.22-7.18-10.8
			c-4.81-3.38-11.52-3.6-16.98-1.86c-7.49,2.39-13.55,8.63-17.51,15.24c-3.56,5.93-5.73,13.11-4.94,20.07
			c0.8,7.05,3.65,14.28,8.07,19.85c4.13,5.21,11.47,7.19,17.86,7.24c3.62,0.03,7.11-0.69,10.54-1.81c2.36-0.77,4.68-1.76,6.36-3.66
			c4.43-5,5.17-11.72,5.33-18.13C63.7,67.9,63.69,66.28,63.69,64.66c0-1.93-3-1.93-3,0c-0.01,3.6-0.15,7.2-0.12,10.8
			c0.02,2.86-0.08,5.83,1.39,8.4c1.28,2.23,3.4,3.88,5.61,5.13c2.52,1.41,5.32,2.61,8.2,3.01c6.03,0.84,12.58-1.08,17.58-4.47
			c2.58-1.75,4.81-3.94,6.42-6.61c1.47-2.43,2.46-5.17,3.33-7.85c3.96-12.13,4.6-28.13-5.01-37.88c-4.01-4.06-9.77-6.64-15.56-6.22
			c-2.37,0.17-4.96,1.2-6.82,2.69c-2.23,1.79-3.59,4.89-4.22,7.62c-0.73,3.16-0.65,6.42-0.67,9.64c-0.02,3.77-0.28,7.53-0.29,11.3
			c-0.01,7.74,0.59,15.46,0.6,23.19c0.01,13.97-1.89,27.92-0.94,41.9c0.31,4.49,0.82,9.11,2.26,13.39c0.68,2.01,1.57,4.02,3.02,5.6
			c1.65,1.82,4.21,2.69,6.56,3.13c3.04,0.57,6.19,0.45,9.18-0.33c2.29-0.6,4.82-1.59,6.49-3.34c3.12-3.27,4.43-8.32,5.5-12.58
			c0.93-3.7,1.9-7.6,2.17-11.42c0.28-3.91-0.49-7.84-2.05-11.42c-3.86-8.9-12.32-14.73-21.25-17.81c-2.87-0.99-5.83-1.7-8.82-2.22
			c-1.88-0.33-2.71,2.51-0.8,2.89c9.68,1.92,19.73,1.59,29.41-0.16c8.54-1.55,17.45-4.19,24.9-8.74
			c6.51-3.98,11.65-9.93,13.68-17.39c1.18-4.34,1.37-8.94,0.88-13.39c-0.45-4.17-1.31-8.44-2.96-12.31
			c-3.32-7.74-10.11-13.63-17.15-17.95c-7.57-4.64-15.98-7.36-24.7-8.83c-8.16-1.38-16.54-1.87-24.81-1.98
			c-8.4-0.11-16.82,0.34-25.14,1.5c-7.42,1.03-14.86,2.63-21.82,5.44c-5.49,2.22-10.97,5.21-14.86,9.79
			c-0.88,1.03-1.67,2.13-2.35,3.3c-0.98,1.67,1.62,3.18,2.59,1.51c2.7-4.62,7.22-7.79,11.92-10.13c6.07-3.02,12.75-4.8,19.39-6.05
			c15.51-2.93,31.67-2.99,47.34-1.37c7.91,0.82,15.94,2.29,23.31,5.4c7.56,3.18,15.08,8.25,20.11,14.8
			c4.81,6.26,6.6,14.67,6.37,22.45c-0.24,7.86-3.47,14.92-9.54,19.96c-6.03,5.01-13.89,7.63-21.35,9.62
			c-8.96,2.4-18.41,3.35-27.66,2.59c-2.27-0.19-4.53-0.5-6.76-0.95c-0.27,0.96-0.53,1.93-0.8,2.89c9.4,1.64,19.08,5.43,25.08,13.21
			c2.2,2.85,3.77,6.18,4.49,9.71c0.63,3.09,0.38,6.11-0.21,9.18c-0.77,4.1-1.64,8.2-3.01,12.14c-0.63,1.82-1.38,3.63-2.47,5.23
			c-1.15,1.69-2.94,2.58-4.85,3.21c-2.65,0.87-5.54,1.15-8.29,0.72c-2.05-0.32-4.38-0.94-5.76-2.6c-2.45-2.94-3.14-7.42-3.67-11.07
			c-1.63-11.04-0.69-22.35-0.1-33.43c0.37-7.05,0.57-14.08,0.28-21.14c-0.3-7.2-0.56-14.4-0.33-21.6c0.1-3.17,0.15-6.33,0.22-9.5
			c0.06-2.81,0.33-5.71,1.61-8.26c0.53-1.06,1.23-2.35,2.21-3.08c0.75-0.56,1.78-0.98,2.63-1.37c2.25-1.06,5.07-0.61,7.4-0.05
			c5.05,1.21,9.14,4.87,11.68,9.31c3.06,5.34,3.72,12.12,3.32,18.16c-0.4,6.07-1.97,12.49-4.69,17.95
			c-2.53,5.06-7.24,8.43-12.56,10.13c-2.69,0.86-5.5,1.32-8.32,1.12c-2.72-0.2-5.34-1.29-7.72-2.58c-1.97-1.06-3.92-2.44-4.99-4.47
			c-1.22-2.34-0.85-5.46-0.84-8.01C63.58,70.94,63.69,67.8,63.69,64.66h-3c0,5.95,0.41,12.92-2.7,18.24
			c-1.05,1.79-2.18,3.41-4.04,4.41c-2.46,1.32-5.49,2.07-8.22,2.51c-5.91,0.95-13.05-0.04-17.86-3.84c-2.37-1.87-4-4.66-5.36-7.31
			c-1.54-3-2.71-6.21-3.46-9.5c-1.43-6.24-0.49-12.65,2.23-18.42c3-6.37,8.06-12.59,14.4-15.86c4.87-2.51,11.4-3.24,16.38-0.56
			c3.38,1.82,5.54,5.1,6.78,8.65c2.3,6.6,1.99,13.59,1.86,20.46c-0.01,0.41-0.01,0.82,0,1.23C60.77,66.58,63.77,66.59,63.69,64.66"
			/>
		<g>
			<text transform="matrix(0.9927 -1.0378 0.7226 0.6912 120.4167 78.9471)" class="st2 st3 st4">A</text>
			<text transform="matrix(0.676 -1.2671 0.8823 0.4707 127.2141 71.4094)" class="st2 st3 st4">u</text>
			<text transform="matrix(0.3208 -1.3998 0.9747 0.2234 131.1246 63.644)" class="st2 st3 st5">s</text>
			<text transform="matrix(8.173258e-03 -1.4361 1 5.697058e-03 132.5667 56.0917)" class="st2 st3 st5">t</text>
			<text transform="matrix(-0.2968 -1.4051 0.9784 -0.2067 132.6197 51.2989)" class="st2 st3 st5">y</text>
			<text transform="matrix(-0.6388 -1.2862 0.8956 -0.4448 130.8541 43.6248)" class="st2 st3 st5">n</text>
			<text transform="matrix(-1.1036 -0.919 0.6399 -0.7685 123.955 32.5187)" class="st2 st3 st5">F</text>
			<text transform="matrix(-1.2039 -0.7829 0.5452 -0.8383 117.2072 27.1604)" class="st2 st3 st5">i</text>
			<text transform="matrix(-1.2677 -0.6748 0.4699 -0.8827 114.4217 25.2809)" class="st2 st3 st5">s</text>
			<text transform="matrix(-1.3356 -0.5278 0.3675 -0.93 108.1079 21.9517)" class="st2 st3 st5">c</text>
			<text transform="matrix(-1.385 -0.3798 0.2645 -0.9644 101.4708 19.3589)" class="st2 st3 st4">h</text>
			<text transform="matrix(-1.4131 -0.2561 0.1783 -0.984 93.9885 17.3396)" class="st2 st3 st4">e</text>
			<text transform="matrix(-1.4257 -0.1726 0.1202 -0.9927 86.4972 16.0371)" class="st2 st3 st4">r</text>
		</g>
	</g>
</g>
</svg>
