<?xml version="1.0" standalone="no"?>
<!DOCTYPE svg PUBLIC "-//W3C//DTD SVG 20010904//EN"
 "http://www.w3.org/TR/2001/REC-SVG-20010904/DTD/svg10.dtd">
<svg version="1.0" xmlns="http://www.w3.org/2000/svg"
 width="632.000000pt" height="632.000000pt" viewBox="0 0 632.000000 632.000000"
 preserveAspectRatio="xMidYMid meet">
<metadata>
Created by potrace 1.14, written by Peter Selinger 2001-2017
</metadata>
<g transform="translate(0.000000,632.000000) scale(0.100000,-0.100000)"
fill="#000000" stroke="none">
<path d="M1367 6123 c-4 -3 -126 -5 -273 -5 -265 0 -365 -10 -401 -40 -7 -6
-13 -8 -13 -4 0 14 -109 -63 -157 -111 -53 -54 -114 -164 -130 -233 -4 -19 -8
-1187 -8 -2595 0 -2399 1 -2563 17 -2607 31 -83 71 -148 128 -205 76 -76 151
-117 254 -140 39 -9 4871 -9 4909 -1 110 26 185 68 267 150 39 39 96 134 110
183 8 29 10 756 8 2655 l-3 2615 -35 63 c-64 117 -191 221 -305 251 -55 14
-107 23 -125 22 -8 0 -98 -1 -200 0 -102 0 -194 0 -205 -1 -116 -5 -545 -3
-545 3 0 5 -5 5 -11 1 -7 -4 -96 -6 -198 -5 -102 1 -195 2 -206 1 -116 -5
-545 -3 -545 3 0 5 -5 5 -11 1 -7 -4 -96 -6 -198 -5 -102 1 -195 2 -206 1
-116 -5 -545 -3 -545 3 0 5 -5 5 -11 1 -7 -4 -96 -6 -198 -5 -102 1 -195 2
-206 1 -116 -5 -545 -3 -545 3 0 5 -5 5 -11 1 -14 -8 -374 -8 -387 0 -5 3 -12
3 -15 -1z"/>
</g>
</svg>
